<mxfile host="Electron" modified="2023-04-22T20:49:01.753Z" agent="Mozilla/5.0 (Windows NT 10.0; Win64; x64) AppleWebKit/537.36 (KHTML, like Gecko) draw.io/21.1.2 Chrome/106.0.5249.199 Electron/21.4.3 Safari/537.36" etag="0VT_T0JDuST974zmsZKO" version="21.1.2" type="device">
  <diagram name="Page-1" id="Linafctdkf3tPvbFTuwC">
    <mxGraphModel dx="1434" dy="836" grid="1" gridSize="10" guides="1" tooltips="1" connect="1" arrows="1" fold="1" page="1" pageScale="1" pageWidth="850" pageHeight="1100" math="0" shadow="0">
      <root>
        <mxCell id="0" />
        <mxCell id="1" parent="0" />
        <mxCell id="KCUj7LFMG8W44MgbGrlV-1" value="χρήστης" style="shape=umlActor;verticalLabelPosition=bottom;verticalAlign=top;html=1;outlineConnect=0;" parent="1" vertex="1">
          <mxGeometry x="180" y="430" width="30" height="60" as="geometry" />
        </mxCell>
        <mxCell id="KCUj7LFMG8W44MgbGrlV-2" value="προσθήκη στα&amp;nbsp;&lt;br style=&quot;border-color: var(--border-color);&quot;&gt;&lt;span style=&quot;&quot;&gt;αγαπημένα ?&lt;/span&gt;" style="shape=umlBoundary;whiteSpace=wrap;html=1;" parent="1" vertex="1">
          <mxGeometry x="410" y="430" width="100" height="80" as="geometry" />
        </mxCell>
        <mxCell id="KCUj7LFMG8W44MgbGrlV-4" value="" style="endArrow=classic;html=1;rounded=0;exitX=0.5;exitY=0.5;exitDx=0;exitDy=0;exitPerimeter=0;entryX=0.02;entryY=0.4;entryDx=0;entryDy=0;entryPerimeter=0;" parent="1" source="KCUj7LFMG8W44MgbGrlV-1" target="KCUj7LFMG8W44MgbGrlV-2" edge="1">
          <mxGeometry width="50" height="50" relative="1" as="geometry">
            <mxPoint x="350" y="690" as="sourcePoint" />
            <mxPoint x="400" y="640" as="targetPoint" />
          </mxGeometry>
        </mxCell>
        <mxCell id="KCUj7LFMG8W44MgbGrlV-5" value="οχι" style="text;html=1;align=center;verticalAlign=middle;resizable=0;points=[];autosize=1;strokeColor=none;fillColor=none;" parent="1" vertex="1">
          <mxGeometry x="280" y="430" width="40" height="30" as="geometry" />
        </mxCell>
        <mxCell id="KCUj7LFMG8W44MgbGrlV-7" value="έλεγχος stock" style="ellipse;shape=umlControl;whiteSpace=wrap;html=1;" parent="1" vertex="1">
          <mxGeometry x="620" y="430" width="70" height="80" as="geometry" />
        </mxCell>
        <mxCell id="KCUj7LFMG8W44MgbGrlV-9" value="" style="endArrow=classic;html=1;rounded=0;exitX=1;exitY=0.525;exitDx=0;exitDy=0;exitPerimeter=0;entryX=-0.014;entryY=0.538;entryDx=0;entryDy=0;entryPerimeter=0;" parent="1" source="KCUj7LFMG8W44MgbGrlV-2" target="KCUj7LFMG8W44MgbGrlV-7" edge="1">
          <mxGeometry width="50" height="50" relative="1" as="geometry">
            <mxPoint x="570" y="590" as="sourcePoint" />
            <mxPoint x="620" y="540" as="targetPoint" />
          </mxGeometry>
        </mxCell>
        <mxCell id="KCUj7LFMG8W44MgbGrlV-10" value="εμφάνισε εναλλακτικά προιόντα&lt;br style=&quot;border-color: var(--border-color);&quot;&gt;&lt;span style=&quot;&quot;&gt;της ίδιας κατηγορίας&lt;/span&gt;" style="ellipse;shape=umlControl;whiteSpace=wrap;html=1;" parent="1" vertex="1">
          <mxGeometry x="840" y="435" width="100" height="100" as="geometry" />
        </mxCell>
        <mxCell id="KCUj7LFMG8W44MgbGrlV-12" value="" style="endArrow=classic;html=1;rounded=0;exitX=1.029;exitY=0.575;exitDx=0;exitDy=0;exitPerimeter=0;entryX=0.043;entryY=0.45;entryDx=0;entryDy=0;entryPerimeter=0;" parent="1" source="KCUj7LFMG8W44MgbGrlV-7" target="KCUj7LFMG8W44MgbGrlV-10" edge="1">
          <mxGeometry width="50" height="50" relative="1" as="geometry">
            <mxPoint x="720" y="600" as="sourcePoint" />
            <mxPoint x="770" y="550" as="targetPoint" />
          </mxGeometry>
        </mxCell>
        <mxCell id="KCUj7LFMG8W44MgbGrlV-13" value="εναλλακτικά προιόντα" style="ellipse;shape=umlEntity;whiteSpace=wrap;html=1;" parent="1" vertex="1">
          <mxGeometry x="850" y="280" width="80" height="80" as="geometry" />
        </mxCell>
        <mxCell id="KCUj7LFMG8W44MgbGrlV-14" value="" style="endArrow=classic;html=1;rounded=0;exitX=0.457;exitY=0.113;exitDx=0;exitDy=0;exitPerimeter=0;entryX=0.5;entryY=1;entryDx=0;entryDy=0;" parent="1" source="KCUj7LFMG8W44MgbGrlV-10" target="KCUj7LFMG8W44MgbGrlV-13" edge="1">
          <mxGeometry width="50" height="50" relative="1" as="geometry">
            <mxPoint x="740" y="490" as="sourcePoint" />
            <mxPoint x="790" y="440" as="targetPoint" />
          </mxGeometry>
        </mxCell>
        <mxCell id="KCUj7LFMG8W44MgbGrlV-15" value="δεν είναι σε stock" style="text;html=1;align=center;verticalAlign=middle;resizable=0;points=[];autosize=1;strokeColor=none;fillColor=none;" parent="1" vertex="1">
          <mxGeometry x="730" y="445" width="120" height="30" as="geometry" />
        </mxCell>
        <mxCell id="KCUj7LFMG8W44MgbGrlV-16" value="εναλλακτικά προϊόντα&amp;nbsp;" style="shape=umlBoundary;whiteSpace=wrap;html=1;" parent="1" vertex="1">
          <mxGeometry x="400" y="620" width="100" height="80" as="geometry" />
        </mxCell>
        <mxCell id="KCUj7LFMG8W44MgbGrlV-18" value="" style="endArrow=classic;html=1;rounded=0;exitX=0.5;exitY=0.5;exitDx=0;exitDy=0;exitPerimeter=0;entryX=0.01;entryY=0.475;entryDx=0;entryDy=0;entryPerimeter=0;" parent="1" source="KCUj7LFMG8W44MgbGrlV-1" target="KCUj7LFMG8W44MgbGrlV-16" edge="1">
          <mxGeometry width="50" height="50" relative="1" as="geometry">
            <mxPoint x="250" y="500" as="sourcePoint" />
            <mxPoint x="300" y="450" as="targetPoint" />
          </mxGeometry>
        </mxCell>
        <mxCell id="KCUj7LFMG8W44MgbGrlV-19" value="" style="endArrow=classic;html=1;rounded=0;exitX=0.043;exitY=0.8;exitDx=0;exitDy=0;exitPerimeter=0;entryX=0.96;entryY=0.225;entryDx=0;entryDy=0;entryPerimeter=0;" parent="1" source="KCUj7LFMG8W44MgbGrlV-10" target="KCUj7LFMG8W44MgbGrlV-16" edge="1">
          <mxGeometry width="50" height="50" relative="1" as="geometry">
            <mxPoint x="720" y="500" as="sourcePoint" />
            <mxPoint x="770" y="450" as="targetPoint" />
          </mxGeometry>
        </mxCell>
        <mxCell id="KCUj7LFMG8W44MgbGrlV-20" value="υπάρχουν" style="text;html=1;align=center;verticalAlign=middle;resizable=0;points=[];autosize=1;strokeColor=none;fillColor=none;" parent="1" vertex="1">
          <mxGeometry x="615" y="540" width="80" height="30" as="geometry" />
        </mxCell>
        <mxCell id="KCUj7LFMG8W44MgbGrlV-21" value="επιλογή προϊόντος" style="text;html=1;align=center;verticalAlign=middle;resizable=0;points=[];autosize=1;strokeColor=none;fillColor=none;" parent="1" vertex="1">
          <mxGeometry x="180" y="548" width="120" height="30" as="geometry" />
        </mxCell>
        <mxCell id="KCUj7LFMG8W44MgbGrlV-22" value="προσθήκη στο καλάθι" style="ellipse;shape=umlControl;whiteSpace=wrap;html=1;" parent="1" vertex="1">
          <mxGeometry x="630" y="630" width="70" height="80" as="geometry" />
        </mxCell>
        <mxCell id="KCUj7LFMG8W44MgbGrlV-24" value="" style="endArrow=classic;html=1;rounded=0;exitX=1;exitY=0.525;exitDx=0;exitDy=0;exitPerimeter=0;entryX=0.014;entryY=0.438;entryDx=0;entryDy=0;entryPerimeter=0;" parent="1" source="KCUj7LFMG8W44MgbGrlV-16" target="KCUj7LFMG8W44MgbGrlV-22" edge="1">
          <mxGeometry width="50" height="50" relative="1" as="geometry">
            <mxPoint x="510" y="710" as="sourcePoint" />
            <mxPoint x="560" y="660" as="targetPoint" />
          </mxGeometry>
        </mxCell>
        <mxCell id="KCUj7LFMG8W44MgbGrlV-26" value="" style="endArrow=classic;html=1;rounded=0;exitX=0.986;exitY=0.538;exitDx=0;exitDy=0;exitPerimeter=0;entryX=0;entryY=0.463;entryDx=0;entryDy=0;entryPerimeter=0;fillColor=#f8cecc;strokeColor=#b85450;" parent="1" source="KCUj7LFMG8W44MgbGrlV-10" target="KCUj7LFMG8W44MgbGrlV-28" edge="1">
          <mxGeometry width="50" height="50" relative="1" as="geometry">
            <mxPoint x="960" y="610" as="sourcePoint" />
            <mxPoint x="1070" y="483" as="targetPoint" />
          </mxGeometry>
        </mxCell>
        <mxCell id="KCUj7LFMG8W44MgbGrlV-27" value="δεν υπάρχουν" style="text;html=1;align=center;verticalAlign=middle;resizable=0;points=[];autosize=1;strokeColor=none;fillColor=none;" parent="1" vertex="1">
          <mxGeometry x="940" y="455" width="100" height="30" as="geometry" />
        </mxCell>
        <mxCell id="KCUj7LFMG8W44MgbGrlV-28" value="μήνυμα δεν υπάρχουν&amp;nbsp;&lt;br style=&quot;border-color: var(--border-color);&quot;&gt;&lt;span style=&quot;&quot;&gt;εναλλακτικά&lt;/span&gt;" style="shape=umlBoundary;whiteSpace=wrap;html=1;fillColor=#f8cecc;strokeColor=#b85450;" parent="1" vertex="1">
          <mxGeometry x="1080" y="455" width="100" height="80" as="geometry" />
        </mxCell>
      </root>
    </mxGraphModel>
  </diagram>
</mxfile>
